<?xml version="1.0" standalone="no"?>
<!DOCTYPE svg PUBLIC "-//W3C//DTD SVG 20010904//EN"
 "http://www.w3.org/TR/2001/REC-SVG-20010904/DTD/svg10.dtd">
<svg version="1.0" xmlns="http://www.w3.org/2000/svg"
 width="500.000000pt" height="500.000000pt" viewBox="0 0 500.000000 500.000000"
 preserveAspectRatio="xMidYMid meet">

<g transform="translate(0.000000,500.000000) scale(0.100000,-0.100000)"
fill="#000000" stroke="none">
<path d="M2100 3823 c-161 -25 -244 -54 -311 -112 -56 -48 -90 -103 -136 -216
l-32 -80 -83 -30 c-46 -17 -110 -46 -143 -65 -73 -41 -192 -157 -228 -224 -88
-159 -89 -351 -2 -530 43 -86 152 -211 239 -271 40 -27 59 -48 67 -74 23 -70
89 -189 148 -268 94 -124 221 -237 363 -320 l61 -36 -44 -21 c-63 -30 -125
-95 -139 -148 -35 -128 60 -279 200 -317 l58 -16 -28 -89 c-17 -52 -39 -100
-54 -115 -15 -15 -26 -39 -26 -53 0 -15 -5 -30 -10 -33 -6 -3 -10 -19 -10 -35
0 -16 -12 -65 -27 -107 -35 -102 -38 -220 -7 -273 43 -74 139 -73 220 2 51 47
90 113 129 218 16 41 34 80 41 85 7 6 15 40 18 77 6 74 22 146 38 166 16 19
46 14 59 -9 6 -13 8 -42 5 -73 -8 -70 -8 -79 3 -176 13 -109 34 -161 77 -200
63 -54 146 -33 193 51 19 33 25 61 28 133 2 50 9 108 15 128 9 31 8 41 -6 62
-9 14 -25 81 -37 148 -11 67 -23 126 -26 131 -4 6 3 7 18 3 63 -21 84 -18 134
16 116 79 127 223 23 318 l-39 37 63 22 c262 94 458 289 534 533 16 54 19 57
62 68 112 28 236 120 282 210 49 96 35 250 -36 380 -56 102 -191 255 -294 335
-38 29 -40 36 -65 170 -27 143 -56 209 -123 278 -75 77 -229 166 -382 219 -65
22 -234 68 -270 73 -14 2 -69 11 -123 20 -89 14 -322 19 -397 8z m233 -642
c44 -27 129 -119 162 -175 83 -142 100 -390 37 -546 -33 -82 -66 -141 -111
-196 -56 -70 -55 -70 -226 -26 -109 28 -202 47 -273 57 -15 2 -67 10 -117 18
-49 9 -137 19 -194 22 l-103 7 -20 45 c-93 211 -53 481 103 690 37 49 45 54
123 78 133 42 233 54 417 51 151 -2 169 -4 202 -25z m285 -42 c381 -96 652
-251 738 -420 39 -79 42 -95 11 -58 -63 73 -150 106 -230 86 -31 -8 -58 -27
-107 -76 -101 -102 -179 -278 -214 -481 -25 -147 -24 -154 27 -169 106 -31
364 -175 407 -226 11 -14 7 -21 -26 -52 -110 -101 -243 -174 -394 -215 -75
-20 -107 -23 -265 -22 -162 1 -190 3 -276 27 -310 85 -565 274 -723 536 -55
91 -112 248 -121 331 l-6 55 26 -61 26 -61 87 -7 c197 -15 508 -69 692 -121
l93 -26 34 33 c57 55 125 166 156 257 24 68 31 108 35 191 8 197 -47 349 -167
469 l-65 63 55 -7 c30 -4 123 -24 207 -46z m659 -431 c107 -49 177 -214 175
-411 -2 -154 -60 -334 -144 -445 l-40 -54 -27 24 c-65 60 -249 161 -368 203
-50 18 -53 21 -53 53 0 112 62 334 125 447 107 192 202 244 332 183z m-1154
-1174 c26 -9 47 -20 47 -25 0 -13 -17 -11 -74 6 -27 8 -64 15 -83 15 -20 0
-32 4 -28 10 9 15 86 12 138 -6z m93 -46 c-2 -7 -10 -42 -17 -77 -11 -60 -13
-62 -25 -40 -19 34 -17 59 6 97 19 31 43 45 36 20z m-122 -11 c55 -17 63 -43
10 -31 -22 5 -78 9 -126 8 -85 -1 -102 7 -54 26 30 12 124 11 170 -3z m756 -7
c12 -7 7 -12 -21 -24 -55 -23 -113 -25 -117 -3 -3 13 4 17 30 18 18 1 44 5 58
9 34 11 33 11 50 0z m-437 -12 c73 0 148 3 168 7 27 5 38 3 42 -8 3 -9 -1 -18
-11 -22 -26 -11 -253 -18 -316 -11 -47 6 -56 11 -56 27 0 16 5 19 20 14 11 -4
80 -7 153 -7z m287 -58 c12 -30 6 -100 -9 -100 -7 0 -31 109 -31 140 0 20 26
-6 40 -40z m198 18 c-8 -23 -158 -61 -158 -40 0 5 19 13 43 16 23 4 53 13 67
21 31 18 53 19 48 3z m-794 -7 c55 -11 21 -22 -84 -25 -58 -2 -115 -7 -127
-11 -15 -5 -23 -3 -23 4 0 28 155 49 234 32z m326 -36 c47 0 113 4 148 8 58 7
62 7 62 -12 0 -25 -60 -34 -232 -33 -152 0 -188 6 -188 33 0 17 5 18 63 11 34
-4 100 -7 147 -7z m506 -20 c13 -70 -18 -140 -81 -183 -34 -24 -57 -30 -37
-10 7 7 12 18 12 25 0 22 -26 14 -38 -12 -6 -14 -16 -25 -22 -25 -16 0 -12 12
11 36 14 15 19 29 15 41 -6 15 -10 13 -32 -15 -32 -41 -52 -42 -22 -2 16 22
19 33 11 41 -8 8 -15 5 -26 -11 -24 -34 -28 -7 -9 51 l18 53 62 12 c34 7 69
17 79 23 35 20 52 13 59 -24z m-816 9 c27 -6 36 -15 56 -60 13 -29 26 -66 30
-81 l6 -28 -21 25 c-27 34 -38 18 -18 -25 13 -27 14 -35 4 -35 -7 0 -21 16
-31 36 -13 28 -20 34 -28 26 -9 -9 -8 -21 5 -47 9 -19 13 -35 9 -35 -12 0 -48
41 -55 63 -4 9 -11 17 -17 17 -15 0 -12 -33 6 -58 22 -32 13 -36 -32 -17 -71
29 -161 138 -152 183 6 32 149 53 238 36z m305 -69 c77 0 161 4 188 8 43 8 47
7 47 -12 0 -29 -46 -36 -246 -36 -174 0 -204 6 -204 41 0 9 10 11 38 6 20 -4
100 -7 177 -7z m249 -82 c4 -9 1 -20 -5 -24 -27 -16 -215 -31 -311 -25 -116 8
-128 12 -128 38 0 18 4 19 43 11 57 -11 304 -7 342 5 43 15 52 14 59 -5z m12
-91 c-14 -23 -242 -43 -359 -31 -135 13 -152 18 -135 35 11 11 25 12 67 4 72
-13 292 -11 361 4 54 12 78 7 66 -12z m-371 -72 c72 -6 142 -6 218 2 145 15
166 15 167 3 0 -18 -52 -26 -196 -32 -121 -5 -360 9 -372 22 -2 2 -1 9 3 15 5
7 20 9 40 6 19 -4 81 -11 140 -16z m425 -444 c-13 -35 -63 -56 -134 -56 -78 0
-97 18 -103 102 -6 66 -5 67 18 62 51 -12 52 -13 38 -30 -10 -13 -10 -17 0
-24 10 -6 10 -9 1 -12 -9 -3 -7 -13 7 -38 17 -31 25 -35 59 -35 35 0 40 3 49
31 6 17 16 38 24 47 12 15 11 17 -5 17 -18 1 -18 1 -1 14 21 16 22 27 2 20
-31 -12 -14 26 18 39 l32 14 3 -62 c2 -34 -2 -74 -8 -89z m-707 48 c20 -8 22
-18 4 -36 -8 -7 -12 -19 -9 -26 2 -6 0 -12 -5 -12 -14 0 -3 -63 15 -82 8 -10
25 -18 38 -18 30 0 86 54 78 75 -4 10 0 15 12 16 11 0 14 3 7 6 -7 2 -13 13
-13 23 0 14 11 18 58 23 31 2 59 3 61 1 8 -7 -31 -95 -63 -142 l-32 -47 -67 2
c-65 2 -113 18 -149 50 -12 11 -15 25 -11 51 9 64 34 133 46 128 7 -4 20 -9
30 -12z"/>
<path d="M2047 2877 c-69 -13 -116 -64 -87 -93 7 -7 4 -16 -10 -29 -25 -23
-25 -29 2 -65 15 -21 30 -30 50 -30 21 0 28 -5 28 -20 0 -15 -7 -20 -25 -20
-14 0 -25 -4 -25 -10 0 -5 6 -10 14 -10 27 0 46 12 46 30 0 10 7 20 15 24 12
4 15 -3 15 -32 0 -26 6 -41 20 -50 11 -7 20 -8 20 -3 0 6 -7 14 -16 19 -11 6
-13 16 -9 35 8 30 25 34 58 12 27 -18 39 -11 62 38 17 37 17 41 2 67 -10 15
-17 40 -17 54 0 19 -7 29 -24 36 -14 5 -29 18 -35 28 -14 27 -28 30 -84 19z
m80 -37 c9 -16 24 -29 33 -27 10 1 15 -6 15 -23 0 -14 6 -35 13 -47 15 -26 16
-53 2 -53 -5 0 -10 -11 -10 -25 0 -26 -9 -31 -38 -16 -25 13 -108 31 -142 31
-19 0 -30 5 -30 14 0 8 -7 17 -17 20 -14 6 -13 10 9 34 21 22 24 30 14 45 -9
15 -8 21 7 31 9 7 17 19 17 25 0 8 8 10 19 6 11 -3 22 -1 26 5 3 5 19 10 35
10 21 0 33 -8 47 -30z"/>
<path d="M2431 1955 c-2 -81 57 -146 117 -129 26 7 26 7 -11 14 -52 9 -77 37
-92 101 l-13 54 -1 -40z"/>
<path d="M3105 2381 c-17 -11 -25 -23 -23 -38 2 -13 -5 -28 -17 -37 -18 -13
-18 -16 -5 -40 7 -15 25 -32 38 -39 29 -14 30 -32 2 -32 -10 0 -22 -4 -26 -8
-4 -4 5 -7 21 -7 15 0 34 8 41 18 12 15 14 13 11 -17 -1 -23 3 -36 13 -39 13
-5 13 -3 1 11 -11 14 -11 20 -1 32 7 8 20 15 29 16 20 1 -57 37 -82 38 -9 1
-23 13 -29 27 -10 22 -9 27 6 36 12 7 16 17 12 33 -7 27 9 36 71 42 39 3 44 0
58 -27 9 -16 20 -30 25 -30 6 0 8 -11 4 -24 -3 -13 -1 -27 5 -30 16 -10 13
-43 -4 -50 -8 -3 -15 -13 -15 -22 0 -10 -5 -14 -15 -10 -8 3 -15 1 -15 -4 0
-22 36 -8 52 20 21 36 14 113 -11 140 -9 9 -20 24 -26 33 -14 23 -87 28 -120
8z"/>
</g>
</svg>
