<?xml version="1.0" standalone="no"?>
<!DOCTYPE svg PUBLIC "-//W3C//DTD SVG 20010904//EN"
 "http://www.w3.org/TR/2001/REC-SVG-20010904/DTD/svg10.dtd">
<svg version="1.0" xmlns="http://www.w3.org/2000/svg"
 width="600.000000pt" height="600.000000pt" viewBox="0 0 600.000000 600.000000"
 preserveAspectRatio="xMidYMid meet">

<g transform="translate(-100.000000,600.000000) scale(0.120000,-0.120000)"
fill="#000000" stroke="black" stroke-width="65">
<path d="M2520 4468 c-268 -45 -476 -151 -640 -326 -93 -99 -126 -145 -177
-246 -61 -122 -99 -242 -123 -396 -50 -314 -74 -382 -173 -487 -42 -44 -67
-78 -64 -87 3 -8 32 -20 64 -26 104 -21 105 -21 97 -39 -40 -96 -68 -291 -58
-408 3 -46 10 -83 14 -83 4 0 12 18 19 40 21 70 65 130 94 130 3 0 7 -71 9
-157 5 -154 19 -232 44 -240 6 -2 16 15 23 38 30 99 87 189 111 174 4 -2 10
-50 14 -107 11 -154 56 -271 141 -366 26 -29 53 -52 60 -52 8 0 14 26 17 84 6
92 18 116 73 156 19 14 40 37 46 51 l12 25 41 -38 c43 -41 174 -131 241 -167
22 -12 47 -25 55 -31 19 -12 178 -60 198 -60 9 0 23 -6 31 -14 61 -54 405 -99
511 -67 19 6 53 11 75 11 22 0 54 4 70 9 48 13 76 -3 153 -92 l33 -38 47 22
c153 72 310 220 377 354 21 44 41 82 42 84 2 2 13 0 26 -6 23 -11 76 -107 78
-140 0 -10 4 -27 8 -37 7 -17 10 -16 30 13 53 74 88 245 75 362 -4 32 -4 59
-1 59 11 0 41 -78 52 -135 l12 -60 14 30 c8 19 14 64 14 120 -1 86 -3 94 -47
190 -67 143 -76 184 -56 243 33 94 40 156 35 277 -7 151 -16 198 -62 312 -47
118 -137 222 -216 250 -47 17 -49 19 -49 56 0 135 -106 334 -251 474 -183 175
-445 298 -729 343 -78 12 -333 11 -410 -2z m512 -47 c102 -22 272 -87 375
-143 139 -76 279 -205 373 -345 69 -103 93 -170 94 -270 1 -81 1 -83 26 -83
45 0 125 -46 162 -91 118 -145 181 -431 139 -631 -14 -66 -31 -77 -31 -19 0
105 -54 301 -121 434 -137 276 -346 472 -576 540 -213 63 -506 34 -731 -73
-184 -88 -299 -191 -484 -437 -57 -76 -128 -163 -160 -193 -130 -126 -318
-200 -512 -200 -74 0 -185 16 -198 28 -4 4 13 27 38 52 93 92 132 196 174 463
37 235 86 373 189 534 128 200 384 379 612 427 151 32 188 35 359 31 128 -3
201 -9 272 -24z m370 -626 c81 -17 169 -51 246 -96 75 -45 216 -185 279 -279
47 -70 123 -210 123 -227 0 -4 -17 9 -37 29 -86 82 -202 107 -288 61 -173 -92
-329 -425 -361 -773 l-6 -66 99 -36 c138 -52 332 -161 428 -243 l30 -25 -53
-49 c-168 -158 -416 -264 -681 -291 -274 -28 -603 62 -866 237 -308 205 -503
483 -579 826 -10 43 13 32 34 -17 l19 -44 68 -7 c331 -32 629 -84 858 -149
l120 -35 58 61 c67 71 116 148 156 247 45 109 56 172 55 331 -1 130 -4 153
-28 225 -34 98 -81 185 -135 246 l-41 47 43 11 c121 33 342 41 459 16z m-484
-82 c193 -232 224 -551 82 -848 -21 -45 -45 -86 -53 -93 -8 -7 -20 -25 -26
-41 -7 -15 -31 -44 -55 -64 l-44 -36 -63 20 c-94 28 -289 74 -414 98 -123 22
-440 62 -497 61 -31 0 -40 5 -53 30 -22 42 -19 59 13 66 111 28 246 108 327
195 44 46 179 217 225 283 62 89 194 212 294 273 54 33 201 103 218 103 3 0
24 -21 46 -47z m1010 -459 c85 -42 149 -135 187 -269 26 -94 31 -292 10 -395
-29 -142 -99 -302 -178 -403 l-25 -32 -29 26 c-82 76 -354 226 -468 260 l-45
13 6 76 c25 292 174 620 324 715 69 43 143 46 218 9z m-2213 -446 c52 -216
156 -403 316 -572 l81 -86 -28 -22 c-85 -65 -124 -131 -124 -212 0 -33 -10
-33 -43 2 -66 69 -117 238 -117 388 l0 84 -31 0 c-39 0 -91 -54 -116 -119 -9
-25 -20 -50 -24 -55 -22 -25 -32 253 -11 327 l10 37 -31 0 c-37 0 -66 -20
-102 -69 l-25 -35 0 51 c0 78 19 195 43 270 l22 68 45 6 c25 3 61 7 81 7 l37
2 17 -72z m2500 -256 c77 -164 106 -323 36 -191 -17 32 -66 77 -75 68 -2 -2 0
-29 5 -59 11 -80 11 -178 -2 -245 -11 -63 -37 -135 -48 -135 -3 0 -15 21 -25
48 -25 62 -72 112 -105 112 -22 -1 -31 -11 -60 -76 -19 -42 -51 -97 -70 -123
-55 -73 -167 -167 -252 -211 l-77 -40 -57 55 c-37 35 -53 56 -44 59 141 44
321 139 403 214 156 140 276 344 316 535 6 31 15 55 20 52 5 -3 21 -31 35 -63z"/>
<path d="M3051 2591 c-17 -11 -7 -41 13 -41 22 0 30 20 15 36 -9 8 -19 10 -28
5z m19 -21 c0 -5 -4 -10 -10 -10 -5 0 -10 5 -10 10 0 6 5 10 10 10 6 0 10 -4
10 -10z"/>
<path d="M2940 2539 c0 -5 5 -7 10 -4 6 3 10 8 10 11 0 2 -4 4 -10 4 -5 0 -10
-5 -10 -11z"/>
<path d="M3202 2508 c2 -13 10 -23 18 -23 8 0 16 10 18 23 3 17 -2 22 -18 22
-16 0 -21 -5 -18 -22z"/>
<path d="M3122 2470 c0 -14 2 -19 5 -12 2 6 2 18 0 25 -3 6 -5 1 -5 -13z"/>
<path d="M3243 2414 c-3 -8 -1 -20 5 -26 13 -13 42 -3 42 14 0 9 -3 9 -12 0
-16 -16 -28 -15 -28 2 0 8 8 17 18 19 16 4 16 5 -1 6 -10 0 -20 -6 -24 -15z"/>
<path d="M2791 2313 c-6 -21 -11 -68 -11 -104 0 -136 84 -229 214 -237 50 -3
69 1 106 20 50 27 95 90 105 148 l6 36 -73 11 c-103 15 -172 44 -256 108 -40
30 -75 55 -77 55 -2 0 -9 -17 -14 -37z m67 -30 c20 -15 38 -28 40 -29 2 -1 -2
-21 -9 -43 -13 -42 -37 -52 -31 -12 3 16 -4 24 -27 32 -31 11 -38 29 -25 63 8
21 9 21 52 -11z m152 -89 c36 -14 66 -28 68 -29 2 -2 -2 -22 -9 -44 -9 -29
-17 -40 -27 -36 -7 3 -18 5 -23 5 -6 0 -8 9 -4 20 9 27 -37 50 -65 32 -24 -15
-50 -5 -50 18 0 32 20 72 33 67 6 -3 41 -18 77 -33z m-175 -4 c0 -16 -6 -26
-17 -28 -14 -3 -18 3 -18 28 0 25 4 31 18 28 11 -2 17 -12 17 -28z m24 -84
l-11 -39 -19 29 c-24 36 -24 37 4 50 31 15 38 4 26 -40z m319 32 c-2 -17 -10
-23 -30 -23 -16 -1 -34 -10 -42 -20 -20 -28 -27 -15 -15 28 9 35 12 37 50 37
36 0 40 -2 37 -22z m-178 -27 c0 -28 -16 -44 -38 -37 -18 6 -19 11 -11 35 8
22 15 28 30 24 10 -3 19 -13 19 -22z m-82 7 c7 -7 12 -20 12 -30 0 -26 48 -43
69 -25 21 17 54 10 47 -10 -3 -8 -9 -26 -12 -39 -7 -29 -31 -31 -97 -8 -64 22
-73 35 -58 84 13 42 20 47 39 28z m230 -27 c10 -6 9 -13 -7 -32 -23 -28 -35
-22 -25 15 7 28 12 30 32 17z m-45 -51 c3 -14 -1 -24 -15 -31 -25 -14 -32 -6
-24 26 8 30 32 33 39 5z"/>
<path d="M2498 3320 c-26 -27 -30 -36 -25 -68 5 -29 19 -49 67 -92 60 -55 73
-83 44 -94 -33 -13 -55 -5 -93 34 -42 44 -52 47 -71 25 -24 -28 41 -100 109
-121 69 -21 141 24 141 89 0 26 -11 43 -65 93 -66 62 -78 87 -49 98 30 12 52
6 75 -19 37 -40 55 -47 73 -29 38 37 -52 114 -134 114 -33 0 -48 -6 -72 -30z"/>
<path d="M3717 2898 c-6 -18 11 -48 26 -48 7 0 21 -6 31 -13 16 -12 15 -19
-23 -115 -44 -111 -47 -122 -30 -139 22 -22 38 -1 80 104 23 57 48 107 56 110
8 3 25 1 39 -5 31 -15 56 -5 52 21 -2 15 -26 29 -98 58 -100 42 -126 46 -133
27z"/>
</g>
</svg>
